<svg xmlns="http://www.w3.org/2000/svg" viewBox="0 0 800 430" font-family="system-ui, -apple-system, sans-serif">
<defs>
<linearGradient id="vg2" x1="0" y1="0" x2="0" y2="1"><stop offset="0%" stop-color="#94a3b8"/><stop offset="100%" stop-color="#64748b"/></linearGradient>
<linearGradient id="bg2" x1="0" y1="0" x2="0" y2="1"><stop offset="0%" stop-color="#a78bfa"/><stop offset="100%" stop-color="#7c3aed"/></linearGradient>
</defs>
<rect width="800" height="430" fill="#0f172a" rx="12"/>
<text x="400" y="32" fill="#f1f5f9" font-size="18" font-weight="600" text-anchor="middle">HTTP Round-Trips: Vanilla vs Batching</text>
<line x1="80" y1="360" x2="760" y2="360" stroke="#1e293b" stroke-width="1"/>
<text x="72" y="364" fill="#94a3b8" font-size="11" text-anchor="end">0</text>
<line x1="80" y1="300" x2="760" y2="300" stroke="#1e293b" stroke-width="1"/>
<text x="72" y="304" fill="#94a3b8" font-size="11" text-anchor="end">230</text>
<line x1="80" y1="240" x2="760" y2="240" stroke="#1e293b" stroke-width="1"/>
<text x="72" y="244" fill="#94a3b8" font-size="11" text-anchor="end">460</text>
<line x1="80" y1="180" x2="760" y2="180" stroke="#1e293b" stroke-width="1"/>
<text x="72" y="184" fill="#94a3b8" font-size="11" text-anchor="end">690</text>
<line x1="80" y1="120" x2="760" y2="120" stroke="#1e293b" stroke-width="1"/>
<text x="72" y="124" fill="#94a3b8" font-size="11" text-anchor="end">920</text>
<line x1="80" y1="60" x2="760" y2="60" stroke="#1e293b" stroke-width="1"/>
<text x="72" y="64" fill="#94a3b8" font-size="11" text-anchor="end">1150</text>
<text x="16" y="210" fill="#94a3b8" font-size="12" transform="rotate(-90, 16, 210)" text-anchor="middle">HTTP Calls</text>
<rect x="91.3" y="357.4" width="39.7" height="2.6" fill="url(#vg2)" rx="4"/>
<text x="111.2" y="351.4" fill="#e2e8f0" font-size="10" text-anchor="middle" font-weight="500">10</text>
<rect x="136.7" y="358.2" width="39.7" height="1.8" fill="url(#bg2)" rx="4"/>
<text x="156.5" y="352.2" fill="#e2e8f0" font-size="10" text-anchor="middle" font-weight="500">7</text>
<text x="133.8" y="340.2" fill="#4ade80" font-size="11" text-anchor="middle" font-weight="600">-30%</text>
<text x="133.8" y="380" fill="#cbd5e1" font-size="12" text-anchor="middle">10 requests</text>
<rect x="204.7" y="347.0" width="39.7" height="13.0" fill="url(#vg2)" rx="4"/>
<text x="224.5" y="341.0" fill="#e2e8f0" font-size="10" text-anchor="middle" font-weight="500">50</text>
<rect x="250.0" y="354.8" width="39.7" height="5.2" fill="url(#bg2)" rx="4"/>
<text x="269.8" y="348.8" fill="#e2e8f0" font-size="10" text-anchor="middle" font-weight="500">20</text>
<text x="247.2" y="336.8" fill="#4ade80" font-size="11" text-anchor="middle" font-weight="600">-60%</text>
<text x="247.2" y="380" fill="#cbd5e1" font-size="12" text-anchor="middle">50 requests</text>
<rect x="318.0" y="333.9" width="39.7" height="26.1" fill="url(#vg2)" rx="4"/>
<text x="337.8" y="327.9" fill="#e2e8f0" font-size="10" text-anchor="middle" font-weight="500">100</text>
<rect x="363.3" y="352.7" width="39.7" height="7.3" fill="url(#bg2)" rx="4"/>
<text x="383.2" y="346.7" fill="#e2e8f0" font-size="10" text-anchor="middle" font-weight="500">28</text>
<text x="360.5" y="334.7" fill="#4ade80" font-size="11" text-anchor="middle" font-weight="600">-72%</text>
<text x="360.5" y="380" fill="#cbd5e1" font-size="12" text-anchor="middle">100 requests</text>
<rect x="431.3" y="294.8" width="39.7" height="65.2" fill="url(#vg2)" rx="4"/>
<text x="451.2" y="288.8" fill="#e2e8f0" font-size="10" text-anchor="middle" font-weight="500">250</text>
<rect x="476.7" y="350.1" width="39.7" height="9.9" fill="url(#bg2)" rx="4"/>
<text x="496.5" y="344.1" fill="#e2e8f0" font-size="10" text-anchor="middle" font-weight="500">38</text>
<text x="473.8" y="332.1" fill="#4ade80" font-size="11" text-anchor="middle" font-weight="600">-85%</text>
<text x="473.8" y="380" fill="#cbd5e1" font-size="12" text-anchor="middle">250 requests</text>
<rect x="544.7" y="229.6" width="39.7" height="130.4" fill="url(#vg2)" rx="4"/>
<text x="564.5" y="223.6" fill="#e2e8f0" font-size="10" text-anchor="middle" font-weight="500">500</text>
<rect x="590.0" y="345.7" width="39.7" height="14.3" fill="url(#bg2)" rx="4"/>
<text x="609.8" y="339.7" fill="#e2e8f0" font-size="10" text-anchor="middle" font-weight="500">55</text>
<text x="587.2" y="327.7" fill="#4ade80" font-size="11" text-anchor="middle" font-weight="600">-89%</text>
<text x="587.2" y="380" fill="#cbd5e1" font-size="12" text-anchor="middle">500 requests</text>
<rect x="658.0" y="99.1" width="39.7" height="260.9" fill="url(#vg2)" rx="4"/>
<text x="677.8" y="93.1" fill="#e2e8f0" font-size="10" text-anchor="middle" font-weight="500">1000</text>
<rect x="703.3" y="336.5" width="39.7" height="23.5" fill="url(#bg2)" rx="4"/>
<text x="723.2" y="330.5" fill="#e2e8f0" font-size="10" text-anchor="middle" font-weight="500">90</text>
<text x="700.5" y="318.5" fill="#4ade80" font-size="11" text-anchor="middle" font-weight="600">-91%</text>
<text x="700.5" y="380" fill="#cbd5e1" font-size="12" text-anchor="middle">1000 requests</text>
<text x="420" y="418" fill="#94a3b8" font-size="12" text-anchor="middle">Logical Requests Sent</text>
<rect x="560" y="14" width="14" height="14" fill="url(#vg2)" rx="3"/>
<text x="580" y="26" fill="#cbd5e1" font-size="11">Vanilla (1 call per request)</text>
<rect x="560" y="34" width="14" height="14" fill="url(#bg2)" rx="3"/>
<text x="580" y="46" fill="#cbd5e1" font-size="11">Batching (auto-grouped)</text>
</svg>
