<svg xmlns="http://www.w3.org/2000/svg" viewBox="0 0 800 400" font-family="system-ui, -apple-system, sans-serif">
<defs>
<linearGradient id="vg2" x1="0" y1="0" x2="0" y2="1"><stop offset="0%" stop-color="#94a3b8"/><stop offset="100%" stop-color="#64748b"/></linearGradient>
<linearGradient id="bg2" x1="0" y1="0" x2="0" y2="1"><stop offset="0%" stop-color="#a78bfa"/><stop offset="100%" stop-color="#7c3aed"/></linearGradient>
</defs>
<rect width="800" height="400" fill="#0f172a" rx="12"/>
<text x="400" y="32" fill="#f1f5f9" font-size="18" font-weight="600" text-anchor="middle">HTTP Round-Trips: Vanilla vs Batching</text>
<line x1="80" y1="330" x2="760" y2="330" stroke="#1e293b" stroke-width="1"/>
<text x="72" y="334" fill="#94a3b8" font-size="11" text-anchor="end">0</text>
<line x1="80" y1="274" x2="760" y2="274" stroke="#1e293b" stroke-width="1"/>
<text x="72" y="278" fill="#94a3b8" font-size="11" text-anchor="end">230</text>
<line x1="80" y1="218" x2="760" y2="218" stroke="#1e293b" stroke-width="1"/>
<text x="72" y="222" fill="#94a3b8" font-size="11" text-anchor="end">460</text>
<line x1="80" y1="162" x2="760" y2="162" stroke="#1e293b" stroke-width="1"/>
<text x="72" y="166" fill="#94a3b8" font-size="11" text-anchor="end">690</text>
<line x1="80" y1="106" x2="760" y2="106" stroke="#1e293b" stroke-width="1"/>
<text x="72" y="110" fill="#94a3b8" font-size="11" text-anchor="end">920</text>
<line x1="80" y1="50" x2="760" y2="50" stroke="#1e293b" stroke-width="1"/>
<text x="72" y="54" fill="#94a3b8" font-size="11" text-anchor="end">1150</text>
<text x="16" y="190" fill="#94a3b8" font-size="12" transform="rotate(-90, 16, 190)" text-anchor="middle">HTTP Calls</text>
<rect x="91.3" y="327.6" width="39.7" height="2.4" fill="url(#vg2)" rx="4"/>
<text x="111.2" y="321.6" fill="#e2e8f0" font-size="10" text-anchor="middle" font-weight="500">10</text>
<rect x="136.7" y="328.3" width="39.7" height="1.7" fill="url(#bg2)" rx="4"/>
<text x="156.5" y="322.3" fill="#e2e8f0" font-size="10" text-anchor="middle" font-weight="500">7</text>
<text x="133.8" y="310.3" fill="#4ade80" font-size="11" text-anchor="middle" font-weight="600">-30%</text>
<text x="133.8" y="350" fill="#cbd5e1" font-size="12" text-anchor="middle">10 requests</text>
<rect x="204.7" y="317.8" width="39.7" height="12.2" fill="url(#vg2)" rx="4"/>
<text x="224.5" y="311.8" fill="#e2e8f0" font-size="10" text-anchor="middle" font-weight="500">50</text>
<rect x="250.0" y="322.5" width="39.7" height="7.5" fill="url(#bg2)" rx="4"/>
<text x="269.8" y="316.5" fill="#e2e8f0" font-size="10" text-anchor="middle" font-weight="500">31</text>
<text x="247.2" y="304.5" fill="#4ade80" font-size="11" text-anchor="middle" font-weight="600">-38%</text>
<text x="247.2" y="350" fill="#cbd5e1" font-size="12" text-anchor="middle">50 requests</text>
<rect x="318.0" y="305.7" width="39.7" height="24.3" fill="url(#vg2)" rx="4"/>
<text x="337.8" y="299.7" fill="#e2e8f0" font-size="10" text-anchor="middle" font-weight="500">100</text>
<rect x="363.3" y="319.0" width="39.7" height="11.0" fill="url(#bg2)" rx="4"/>
<text x="383.2" y="313.0" fill="#e2e8f0" font-size="10" text-anchor="middle" font-weight="500">45</text>
<text x="360.5" y="301.0" fill="#4ade80" font-size="11" text-anchor="middle" font-weight="600">-55%</text>
<text x="360.5" y="350" fill="#cbd5e1" font-size="12" text-anchor="middle">100 requests</text>
<rect x="431.3" y="269.1" width="39.7" height="60.9" fill="url(#vg2)" rx="4"/>
<text x="451.2" y="263.1" fill="#e2e8f0" font-size="10" text-anchor="middle" font-weight="500">250</text>
<rect x="476.7" y="304.2" width="39.7" height="25.8" fill="url(#bg2)" rx="4"/>
<text x="496.5" y="298.2" fill="#e2e8f0" font-size="10" text-anchor="middle" font-weight="500">106</text>
<text x="473.8" y="286.2" fill="#4ade80" font-size="11" text-anchor="middle" font-weight="600">-58%</text>
<text x="473.8" y="350" fill="#cbd5e1" font-size="12" text-anchor="middle">250 requests</text>
<rect x="544.7" y="208.3" width="39.7" height="121.7" fill="url(#vg2)" rx="4"/>
<text x="564.5" y="202.3" fill="#e2e8f0" font-size="10" text-anchor="middle" font-weight="500">500</text>
<rect x="590.0" y="314.2" width="39.7" height="15.8" fill="url(#bg2)" rx="4"/>
<text x="609.8" y="308.2" fill="#e2e8f0" font-size="10" text-anchor="middle" font-weight="500">65</text>
<text x="587.2" y="296.2" fill="#4ade80" font-size="11" text-anchor="middle" font-weight="600">-87%</text>
<text x="587.2" y="350" fill="#cbd5e1" font-size="12" text-anchor="middle">500 requests</text>
<rect x="658.0" y="86.5" width="39.7" height="243.5" fill="url(#vg2)" rx="4"/>
<text x="677.8" y="80.5" fill="#e2e8f0" font-size="10" text-anchor="middle" font-weight="500">1000</text>
<rect x="703.3" y="308.1" width="39.7" height="21.9" fill="url(#bg2)" rx="4"/>
<text x="723.2" y="302.1" fill="#e2e8f0" font-size="10" text-anchor="middle" font-weight="500">90</text>
<text x="700.5" y="290.1" fill="#4ade80" font-size="11" text-anchor="middle" font-weight="600">-91%</text>
<text x="700.5" y="350" fill="#cbd5e1" font-size="12" text-anchor="middle">1000 requests</text>
<text x="420" y="388" fill="#94a3b8" font-size="12" text-anchor="middle">Logical Requests Sent</text>
<rect x="550" y="60" width="14" height="14" fill="url(#vg2)" rx="3"/>
<text x="570" y="72" fill="#cbd5e1" font-size="12">Vanilla (1 call per request)</text>
<rect x="550" y="82" width="14" height="14" fill="url(#bg2)" rx="3"/>
<text x="570" y="94" fill="#cbd5e1" font-size="12">Batching (auto-grouped)</text>
</svg>
