<svg xmlns="http://www.w3.org/2000/svg" viewBox="0 0 800 450" font-family="system-ui, -apple-system, sans-serif">
<defs>
<linearGradient id="vg" x1="0" y1="0" x2="0" y2="1"><stop offset="0%" stop-color="#94a3b8"/><stop offset="100%" stop-color="#64748b"/></linearGradient>
<linearGradient id="bg" x1="0" y1="0" x2="0" y2="1"><stop offset="0%" stop-color="#38bdf8"/><stop offset="100%" stop-color="#0284c7"/></linearGradient>
</defs>
<rect width="800" height="450" fill="#0f172a" rx="12"/>
<text x="400" y="32" fill="#f1f5f9" font-size="18" font-weight="600" text-anchor="middle">Throughput: Vanilla vs Batching Transport</text>
<text x="760" y="32" fill="#94a3b8" font-size="12">(50ms simulated RPC latency)</text>
<line x1="80" y1="380" x2="760" y2="380" stroke="#1e293b" stroke-width="1"/>
<text x="72" y="384" fill="#94a3b8" font-size="11" text-anchor="end">0</text>
<line x1="80" y1="314" x2="760" y2="314" stroke="#1e293b" stroke-width="1"/>
<text x="72" y="318" fill="#94a3b8" font-size="11" text-anchor="end">4380</text>
<line x1="80" y1="248" x2="760" y2="248" stroke="#1e293b" stroke-width="1"/>
<text x="72" y="252" fill="#94a3b8" font-size="11" text-anchor="end">8760</text>
<line x1="80" y1="182" x2="760" y2="182" stroke="#1e293b" stroke-width="1"/>
<text x="72" y="186" fill="#94a3b8" font-size="11" text-anchor="end">13140</text>
<line x1="80" y1="116" x2="760" y2="116" stroke="#1e293b" stroke-width="1"/>
<text x="72" y="120" fill="#94a3b8" font-size="11" text-anchor="end">17521</text>
<line x1="80" y1="50" x2="760" y2="50" stroke="#1e293b" stroke-width="1"/>
<text x="72" y="54" fill="#94a3b8" font-size="11" text-anchor="end">21901</text>
<text x="16" y="215" fill="#94a3b8" font-size="12" transform="rotate(-90, 16, 215)" text-anchor="middle">Requests / second</text>
<rect x="91.3" y="378.6" width="39.7" height="1.4" fill="url(#vg)" rx="4"/>
<text x="111.2" y="372.6" fill="#e2e8f0" font-size="10" text-anchor="middle" font-weight="500">95</text>
<rect x="136.7" y="377.1" width="39.7" height="2.9" fill="url(#bg)" rx="4"/>
<text x="156.5" y="371.1" fill="#e2e8f0" font-size="10" text-anchor="middle" font-weight="500">194</text>
<text x="133.8" y="357.1" fill="#4ade80" font-size="11" text-anchor="middle" font-weight="600">2.0x</text>
<text x="133.8" y="400" fill="#cbd5e1" font-size="12" text-anchor="middle">10</text>
<rect x="204.7" y="378.4" width="39.7" height="1.6" fill="url(#vg)" rx="4"/>
<text x="224.5" y="372.4" fill="#e2e8f0" font-size="10" text-anchor="middle" font-weight="500">107</text>
<rect x="250.0" y="365.4" width="39.7" height="14.6" fill="url(#bg)" rx="4"/>
<text x="269.8" y="359.4" fill="#e2e8f0" font-size="10" text-anchor="middle" font-weight="500">970</text>
<text x="247.2" y="345.4" fill="#4ade80" font-size="11" text-anchor="middle" font-weight="600">9.1x</text>
<text x="247.2" y="400" fill="#cbd5e1" font-size="12" text-anchor="middle">50</text>
<rect x="318.0" y="378.3" width="39.7" height="1.7" fill="url(#vg)" rx="4"/>
<text x="337.8" y="372.3" fill="#e2e8f0" font-size="10" text-anchor="middle" font-weight="500">113</text>
<rect x="363.3" y="350.6" width="39.7" height="29.4" fill="url(#bg)" rx="4"/>
<text x="383.2" y="344.6" fill="#e2e8f0" font-size="10" text-anchor="middle" font-weight="500">1953</text>
<text x="360.5" y="330.6" fill="#4ade80" font-size="11" text-anchor="middle" font-weight="600">17.3x</text>
<text x="360.5" y="400" fill="#cbd5e1" font-size="12" text-anchor="middle">100</text>
<rect x="431.3" y="378.3" width="39.7" height="1.7" fill="url(#vg)" rx="4"/>
<text x="451.2" y="372.3" fill="#e2e8f0" font-size="10" text-anchor="middle" font-weight="500">114</text>
<rect x="476.7" y="310.3" width="39.7" height="69.7" fill="url(#bg)" rx="4"/>
<text x="496.5" y="304.3" fill="#e2e8f0" font-size="10" text-anchor="middle" font-weight="500">4629</text>
<text x="473.8" y="290.3" fill="#4ade80" font-size="11" text-anchor="middle" font-weight="600">40.6x</text>
<text x="473.8" y="400" fill="#cbd5e1" font-size="12" text-anchor="middle">250</text>
<rect x="544.7" y="378.3" width="39.7" height="1.7" fill="url(#vg)" rx="4"/>
<text x="564.5" y="372.3" fill="#e2e8f0" font-size="10" text-anchor="middle" font-weight="500">114</text>
<rect x="590.0" y="234.8" width="39.7" height="145.2" fill="url(#bg)" rx="4"/>
<text x="609.8" y="228.8" fill="#e2e8f0" font-size="10" text-anchor="middle" font-weight="500">9639</text>
<text x="587.2" y="214.8" fill="#4ade80" font-size="11" text-anchor="middle" font-weight="600">84.3x</text>
<text x="587.2" y="400" fill="#cbd5e1" font-size="12" text-anchor="middle">500</text>
<rect x="658.0" y="378.3" width="39.7" height="1.7" fill="url(#vg)" rx="4"/>
<text x="677.8" y="372.3" fill="#e2e8f0" font-size="10" text-anchor="middle" font-weight="500">115</text>
<rect x="703.3" y="93.0" width="39.7" height="287.0" fill="url(#bg)" rx="4"/>
<text x="723.2" y="87.0" fill="#e2e8f0" font-size="10" text-anchor="middle" font-weight="500">19044</text>
<text x="700.5" y="73.0" fill="#4ade80" font-size="11" text-anchor="middle" font-weight="600">165.5x</text>
<text x="700.5" y="400" fill="#cbd5e1" font-size="12" text-anchor="middle">1000</text>
<text x="420" y="438" fill="#94a3b8" font-size="12" text-anchor="middle">Concurrent Requests</text>
<rect x="560" y="60" width="14" height="14" fill="url(#vg)" rx="3"/>
<text x="580" y="72" fill="#cbd5e1" font-size="12">Vanilla (1 req = 1 call)</text>
<rect x="560" y="82" width="14" height="14" fill="url(#bg)" rx="3"/>
<text x="580" y="94" fill="#cbd5e1" font-size="12">Batching Transport</text>
</svg>
