<svg xmlns="http://www.w3.org/2000/svg" viewBox="0 0 800 480" font-family="system-ui, -apple-system, sans-serif">
<defs>
<linearGradient id="vg" x1="0" y1="0" x2="0" y2="1"><stop offset="0%" stop-color="#94a3b8"/><stop offset="100%" stop-color="#64748b"/></linearGradient>
<linearGradient id="bg" x1="0" y1="0" x2="0" y2="1"><stop offset="0%" stop-color="#38bdf8"/><stop offset="100%" stop-color="#0284c7"/></linearGradient>
</defs>
<rect width="800" height="480" fill="#0f172a" rx="12"/>
<text x="400" y="30" fill="#f1f5f9" font-size="18" font-weight="600" text-anchor="middle">Throughput: Vanilla vs Batching Transport</text>
<text x="400" y="50" fill="#94a3b8" font-size="12" text-anchor="middle">(50ms simulated RPC latency, 6-connection pool)</text>
<line x1="80" y1="410" x2="760" y2="410" stroke="#1e293b" stroke-width="1"/>
<text x="72" y="414" fill="#94a3b8" font-size="11" text-anchor="end">0</text>
<line x1="80" y1="344" x2="760" y2="344" stroke="#1e293b" stroke-width="1"/>
<text x="72" y="348" fill="#94a3b8" font-size="11" text-anchor="end">4393</text>
<line x1="80" y1="278" x2="760" y2="278" stroke="#1e293b" stroke-width="1"/>
<text x="72" y="282" fill="#94a3b8" font-size="11" text-anchor="end">8786</text>
<line x1="80" y1="212" x2="760" y2="212" stroke="#1e293b" stroke-width="1"/>
<text x="72" y="216" fill="#94a3b8" font-size="11" text-anchor="end">13179</text>
<line x1="80" y1="146" x2="760" y2="146" stroke="#1e293b" stroke-width="1"/>
<text x="72" y="150" fill="#94a3b8" font-size="11" text-anchor="end">17571</text>
<line x1="80" y1="80" x2="760" y2="80" stroke="#1e293b" stroke-width="1"/>
<text x="72" y="84" fill="#94a3b8" font-size="11" text-anchor="end">21964</text>
<text x="16" y="245" fill="#94a3b8" font-size="12" transform="rotate(-90, 16, 245)" text-anchor="middle">Requests / second</text>
<rect x="91.3" y="408.5" width="39.7" height="1.5" fill="url(#vg)" rx="4"/>
<text x="111.2" y="402.5" fill="#e2e8f0" font-size="10" text-anchor="middle" font-weight="500">97</text>
<rect x="136.7" y="407.0" width="39.7" height="3.0" fill="url(#bg)" rx="4"/>
<text x="156.5" y="401.0" fill="#e2e8f0" font-size="10" text-anchor="middle" font-weight="500">197</text>
<text x="133.8" y="387.0" fill="#4ade80" font-size="11" text-anchor="middle" font-weight="600">2.0x</text>
<text x="133.8" y="430" fill="#cbd5e1" font-size="12" text-anchor="middle">10</text>
<rect x="204.7" y="408.4" width="39.7" height="1.6" fill="url(#vg)" rx="4"/>
<text x="224.5" y="402.4" fill="#e2e8f0" font-size="10" text-anchor="middle" font-weight="500">107</text>
<rect x="250.0" y="395.5" width="39.7" height="14.5" fill="url(#bg)" rx="4"/>
<text x="269.8" y="389.5" fill="#e2e8f0" font-size="10" text-anchor="middle" font-weight="500">967</text>
<text x="247.2" y="375.5" fill="#4ade80" font-size="11" text-anchor="middle" font-weight="600">9.0x</text>
<text x="247.2" y="430" fill="#cbd5e1" font-size="12" text-anchor="middle">50</text>
<rect x="318.0" y="408.3" width="39.7" height="1.7" fill="url(#vg)" rx="4"/>
<text x="337.8" y="402.3" fill="#e2e8f0" font-size="10" text-anchor="middle" font-weight="500">113</text>
<rect x="363.3" y="380.7" width="39.7" height="29.3" fill="url(#bg)" rx="4"/>
<text x="383.2" y="374.7" fill="#e2e8f0" font-size="10" text-anchor="middle" font-weight="500">1948</text>
<text x="360.5" y="360.7" fill="#4ade80" font-size="11" text-anchor="middle" font-weight="600">17.2x</text>
<text x="360.5" y="430" fill="#cbd5e1" font-size="12" text-anchor="middle">100</text>
<rect x="431.3" y="408.3" width="39.7" height="1.7" fill="url(#vg)" rx="4"/>
<text x="451.2" y="402.3" fill="#e2e8f0" font-size="10" text-anchor="middle" font-weight="500">115</text>
<rect x="476.7" y="337.2" width="39.7" height="72.8" fill="url(#bg)" rx="4"/>
<text x="496.5" y="331.2" fill="#e2e8f0" font-size="10" text-anchor="middle" font-weight="500">4843</text>
<text x="473.8" y="317.2" fill="#4ade80" font-size="11" text-anchor="middle" font-weight="600">42.2x</text>
<text x="473.8" y="430" fill="#cbd5e1" font-size="12" text-anchor="middle">250</text>
<rect x="544.7" y="408.3" width="39.7" height="1.7" fill="url(#vg)" rx="4"/>
<text x="564.5" y="402.3" fill="#e2e8f0" font-size="10" text-anchor="middle" font-weight="500">115</text>
<rect x="590.0" y="265.4" width="39.7" height="144.6" fill="url(#bg)" rx="4"/>
<text x="609.8" y="259.4" fill="#e2e8f0" font-size="10" text-anchor="middle" font-weight="500">9623</text>
<text x="587.2" y="245.4" fill="#4ade80" font-size="11" text-anchor="middle" font-weight="600">83.9x</text>
<text x="587.2" y="430" fill="#cbd5e1" font-size="12" text-anchor="middle">500</text>
<rect x="658.0" y="408.3" width="39.7" height="1.7" fill="url(#vg)" rx="4"/>
<text x="677.8" y="402.3" fill="#e2e8f0" font-size="10" text-anchor="middle" font-weight="500">115</text>
<rect x="703.3" y="123.0" width="39.7" height="287.0" fill="url(#bg)" rx="4"/>
<text x="723.2" y="117.0" fill="#e2e8f0" font-size="10" text-anchor="middle" font-weight="500">19099</text>
<text x="700.5" y="103.0" fill="#4ade80" font-size="11" text-anchor="middle" font-weight="600">165.5x</text>
<text x="700.5" y="430" fill="#cbd5e1" font-size="12" text-anchor="middle">1000</text>
<text x="420" y="468" fill="#94a3b8" font-size="12" text-anchor="middle">Concurrent Requests</text>
<rect x="570" y="14" width="14" height="14" fill="url(#vg)" rx="3"/>
<text x="590" y="26" fill="#cbd5e1" font-size="11">Vanilla (1 req = 1 call)</text>
<rect x="570" y="34" width="14" height="14" fill="url(#bg)" rx="3"/>
<text x="590" y="46" fill="#cbd5e1" font-size="11">Batching Transport</text>
</svg>
